<svg width="20" height="20" viewBox="0 0 20 20" fill="none" xmlns="http://www.w3.org/2000/svg">
<g id="volume-slash" opacity="0.6">
<g id="vuesax/linear/volume-slash">
<g id="volume-slash_2">
<path id="Vector" d="M12.4993 6.9745V6.1745C12.4993 3.69117 10.7743 2.74117 8.67435 4.05783L6.24102 5.58283C5.97435 5.74117 5.66602 5.83283 5.35768 5.83283H4.16602C2.49935 5.83283 1.66602 6.66617 1.66602 8.33283V11.6662C1.66602 13.3328 2.49935 14.1662 4.16602 14.1662H5.83268" stroke="black" strokeWidth="1.5" strokeLinecap="round" strokeLinejoin="round"/>
<path id="Vector_2" d="M8.67578 15.943C10.7758 17.2596 12.5008 16.3013 12.5008 13.8263V10.793" stroke="black" strokeWidth="1.5" strokeLinecap="round" strokeLinejoin="round"/>
<path id="Vector_3" d="M15.675 7.85156C16.425 9.64323 16.2 11.7349 15 13.3349" stroke="black" strokeWidth="1.5" strokeLinecap="round" strokeLinejoin="round"/>
<path id="Vector_4" d="M17.6254 6.5C18.8504 9.40833 18.4837 12.8083 16.5254 15.4167" stroke="black" strokeWidth="1.5" strokeLinecap="round" strokeLinejoin="round"/>
<path id="Vector_5" d="M18.3327 1.66797L1.66602 18.3346" stroke="black" strokeWidth="1.5" strokeLinecap="round" strokeLinejoin="round"/>
</g>
</g>
</g>
</svg>
